# xmcd CD database file
#
# Track frame offsets:
#	150
#	16985
#	33303
#	54846
#	74603
#	91346
#	113769
#	134771
#	156056
#	185559
#	200953
#
# Disc length: 2953 seconds
#
# Revision: 2
# Processed by: cddbd v1.4b41PL1 Copyright (c) Steve Scherf et al.
# Submitted via: Feurio! 1.60 - http://www.feurio.com
#
DISCID=9b0b870b,a80b870b
DTITLE=Madonna - Ray Of Light
DYEAR=1900
DGENRE=
TTITLE0=Music
TTITLE1=Impressive Instant
TTITLE2=Runaway Lover
TTITLE3=I deserve it
TTITLE4=Amazing
TTITLE5=Nobody´s Perfect
TTITLE6=Don´t tell you
TTITLE7=What it feels like for a Girl
TTITLE8=Paradise (Not for me)
TTITLE9=Gone
TTITLE10=American Pie
EXTD=
EXTT0=
EXTT1=
EXTT2=
EXTT3=
EXTT4=
EXTT5=
EXTT6=
EXTT7=
EXTT8=
EXTT9=
EXTT10=
PLAYORDER=
